<svg width="52" height="52" viewBox="0 0 52 52" fill="none" xmlns="http://www.w3.org/2000/svg">
<path d="M26.1805 13.6793L16.8671 10.1609C13.6749 8.95496 13.4479 4.52607 16.5 3L19.6061 1.66883C22.0722 0.6119 24.8814 0.710429 27.2675 1.93755L40.4424 8.71321C40.7834 8.88859 40.9941 9.24353 40.9847 9.62688L40.5432 27.7285C40.5153 28.8714 40.0781 29.9663 39.3112 30.814C36.3809 34.0527 31 31.9798 31 27.6122V20.652C31 17.5516 29.0808 14.775 26.1805 13.6793Z" fill="#FFCCE3"/>
<path d="M38.8638 10.4589L20.4569 1.57283C20.2558 1.47572 20.0215 1.47572 19.8205 1.57283L1.4137 10.4589C1.16074 10.581 1 10.8372 1 11.118V32.6984C1 32.9793 1.16074 33.2354 1.4137 33.3575L19.8205 42.2435C19.921 42.2921 20.0299 42.3163 20.1388 42.3163C20.2476 42.3163 20.3564 42.292 20.457 42.2435L27.3385 38.9213C27.7025 38.7457 27.8552 38.3082 27.6794 37.944C27.5037 37.58 27.0659 37.4274 26.702 37.6031L20.8707 40.4183V20.4635L24.4987 18.712C24.8628 18.5362 25.0154 18.0987 24.8396 17.7346C24.664 17.3706 24.2263 17.2179 23.8622 17.3937L20.1387 19.1913L3.41553 11.118L8.99719 8.4235L26.7061 16.9726V24.0185C26.7061 24.2704 26.8356 24.5045 27.049 24.6385C27.1674 24.7129 27.3026 24.7505 27.4381 24.7505C27.5466 24.7505 27.6555 24.7264 27.7563 24.6777L32.1992 22.5328C32.4522 22.4107 32.6129 22.1546 32.6129 21.8736V14.7949L37.8136 12.2843V30.4296C37.8136 30.8339 38.1412 31.1616 38.5456 31.1616C38.9499 31.1616 39.2775 30.8339 39.2775 30.4296V11.118C39.2775 10.8372 39.1168 10.581 38.8638 10.4589ZM19.4068 20.4635V40.4183L2.4639 32.239V12.2842L19.4068 20.4635ZM27.4039 15.6839L10.712 7.62577L13.8731 6.09365L30.5713 14.1549L27.4039 15.6839ZM31.149 21.4142L28.17 22.8524V16.9397L31.149 15.5016V21.4142ZM32.2503 13.3444C32.2334 13.3344 32.2171 13.3238 32.1992 13.3151L15.5318 5.26879L20.1388 3.04473L36.862 11.118L32.2503 13.3444Z" fill="#333333" stroke="#333333" stroke-width="0.3"/>
<rect x="46.9609" y="30.5" width="6" height="24" rx="3" transform="rotate(44.9662 46.9609 30.5)" fill="#FFCCE3"/>
<path d="M46.987 29.8215C46.4022 29.2366 45.6246 28.9146 44.7975 28.9146C43.9704 28.9146 43.1928 29.2366 42.608 29.8215L39.1993 33.2301L28.2058 31.2902C27.8866 31.2339 27.5688 31.3939 27.4239 31.6837L26.0865 34.3587C25.9056 34.7203 26.0522 35.1599 26.4138 35.3407L33.5305 38.899L31.6202 40.8093L28.1134 40.6424C27.9071 40.6332 27.7068 40.7102 27.561 40.8559L25.5548 42.8622C25.386 43.031 25.3101 43.2716 25.3516 43.5067C25.393 43.7419 25.5465 43.942 25.7628 44.043L30.5373 46.2711L32.7654 51.0455C32.8664 51.2619 33.0665 51.4155 33.3016 51.4569C33.3441 51.4644 33.3864 51.468 33.4287 51.468C33.6212 51.468 33.8079 51.3921 33.9463 51.2536L35.9527 49.2473C36.0985 49.1015 36.176 48.9009 36.1662 48.6949L35.9992 45.1883L37.9096 43.2779L41.468 50.3946C41.5548 50.5682 41.707 50.7002 41.8911 50.7616C41.9665 50.7867 42.0446 50.7992 42.1226 50.7992C42.2351 50.7992 42.3474 50.7732 42.4499 50.7219L45.1249 49.3844C45.4145 49.2395 45.5746 48.9215 45.5183 48.6026L43.5783 37.6091L46.9871 34.2003C48.1942 32.9932 48.1942 31.0287 46.987 29.8215ZM27.7232 34.3586L28.4891 32.8267L37.9359 34.4937L34.6217 37.8078L27.7232 34.3586ZM43.9818 48.3193L42.4499 49.0854L39.0006 42.1869L42.3148 38.8727L43.9818 48.3193ZM45.9518 33.1652L34.735 44.3821C34.5892 44.5279 34.5117 44.7285 34.5215 44.9345L34.6884 48.4412L33.65 49.4796L31.7513 45.411C31.6787 45.2551 31.5535 45.1299 31.3976 45.0572L27.3289 43.1584L28.3672 42.12L31.874 42.287C32.0814 42.2968 32.2806 42.2192 32.4264 42.0735L43.6433 30.8567C43.9516 30.5484 44.3615 30.3786 44.7976 30.3786C45.2336 30.3786 45.6436 30.5484 45.9519 30.8567C46.5883 31.4931 46.5883 32.5287 45.9518 33.1652Z" fill="#333333" stroke="#333333" stroke-width="0.3"/>
</svg>
