<svg width="65" height="57" viewBox="0 0 65 57" fill="none" xmlns="http://www.w3.org/2000/svg">
<rect x="25.7422" y="4.43311" width="4" height="42" rx="2" fill="#FFCCE3"/>
<rect x="39.7422" y="14.4331" width="4" height="42" rx="2" fill="#FFCCE3"/>
<line x1="0.704973" y1="0.945113" x2="63.4287" y2="54.6074" stroke="#0F0E0F" stroke-linecap="round"/>
<path d="M25.5302 43.6772C25.2667 43.6772 25.0031 43.4136 25.0031 43.0622L23.861 34.8918C23.861 34.804 23.861 34.804 23.861 34.7161V6.77885L19.0291 2.64975C18.8534 2.47405 18.6777 2.12263 18.7656 1.77122C18.8534 1.41981 19.0291 1.15625 19.2927 1.15625H31.68C31.9435 1.15625 32.1192 1.41981 32.2071 1.77122C32.2949 2.12263 32.2071 2.47405 31.9435 2.64975L27.1995 6.77885V34.7161C27.1995 34.804 27.1995 34.804 27.1995 34.8918L26.0574 43.0622C25.9695 43.4136 25.7938 43.6772 25.5302 43.6772ZM24.9153 34.6283L25.5302 38.9331L26.1452 34.6283V6.25173C26.1452 5.98817 26.2331 5.72461 26.4088 5.54891L29.6593 2.73761H21.4011L24.6517 5.54891C24.8274 5.72461 24.9153 5.98817 24.9153 6.25173V34.6283Z" fill="#333333" stroke="#333333" stroke-width="0.8"/>
<path d="M38.2678 53.5168C38.0043 53.5168 37.7407 53.2532 37.7407 52.9018L36.5986 44.7314C36.5986 44.6436 36.5986 44.6436 36.5986 44.5557V16.5306L31.8546 12.4894C31.6788 12.3136 31.5031 11.9622 31.591 11.6108C31.6788 11.2594 31.8546 10.9958 32.1181 10.9958H44.5054C44.769 10.9958 44.9447 11.2594 45.0325 11.6108C45.1204 11.9622 45.0325 12.3136 44.769 12.4894L40.0249 16.5306V44.4679C40.0249 44.5557 40.0249 44.5557 40.0249 44.6436L38.8828 52.8139C38.7949 53.2532 38.5314 53.5168 38.2678 53.5168ZM37.6529 44.38L38.2678 48.6848L38.8828 44.38V16.0913C38.8828 15.8278 38.9707 15.5642 39.1464 15.3885L42.3969 12.5772H34.1387L37.3893 15.3885C37.565 15.5642 37.6529 15.8278 37.6529 16.0913V44.38Z" fill="#333333" stroke="#333333" stroke-width="0.8"/>
<line x1="0.704973" y1="0.945113" x2="63.4287" y2="54.6074" stroke="#0F0E0F" stroke-linecap="round"/>
<path d="M25.5302 43.6772C25.2667 43.6772 25.0031 43.4136 25.0031 43.0622L23.861 34.8918C23.861 34.804 23.861 34.804 23.861 34.7161V6.77885L19.0291 2.64975C18.8534 2.47405 18.6777 2.12263 18.7656 1.77122C18.8534 1.41981 19.0291 1.15625 19.2927 1.15625H31.68C31.9435 1.15625 32.1192 1.41981 32.2071 1.77122C32.2949 2.12263 32.2071 2.47405 31.9435 2.64975L27.1995 6.77885V34.7161C27.1995 34.804 27.1995 34.804 27.1995 34.8918L26.0574 43.0622C25.9695 43.4136 25.7938 43.6772 25.5302 43.6772ZM24.9153 34.6283L25.5302 38.9331L26.1452 34.6283V6.25173C26.1452 5.98817 26.2331 5.72461 26.4088 5.54891L29.6593 2.73761H21.4011L24.6517 5.54891C24.8274 5.72461 24.9153 5.98817 24.9153 6.25173V34.6283Z" fill="#333333" stroke="#333333" stroke-width="0.8"/>
<path d="M38.2678 53.5168C38.0043 53.5168 37.7407 53.2532 37.7407 52.9018L36.5986 44.7314C36.5986 44.6436 36.5986 44.6436 36.5986 44.5557V16.5306L31.8546 12.4894C31.6788 12.3136 31.5031 11.9622 31.591 11.6108C31.6788 11.2594 31.8546 10.9958 32.1181 10.9958H44.5054C44.769 10.9958 44.9447 11.2594 45.0325 11.6108C45.1204 11.9622 45.0325 12.3136 44.769 12.4894L40.0249 16.5306V44.4679C40.0249 44.5557 40.0249 44.5557 40.0249 44.6436L38.8828 52.8139C38.7949 53.2532 38.5314 53.5168 38.2678 53.5168ZM37.6529 44.38L38.2678 48.6848L38.8828 44.38V16.0913C38.8828 15.8278 38.9707 15.5642 39.1464 15.3885L42.3969 12.5772H34.1387L37.3893 15.3885C37.565 15.5642 37.6529 15.8278 37.6529 16.0913V44.38Z" fill="#333333" stroke="#333333" stroke-width="0.8"/>
</svg>
