<svg
          
            width="39"
            height="29"
            viewBox="0 0 39 29"
            fill="none"
            xmlns="http://www.w3.org/2000/svg"
          >
            <path
              fill-rule="evenodd"
              clip-rule="evenodd"
              d="M5 5C2.23858 5 0 7.23858 0 10V24C0 26.7614 2.23858 29 5 29H34C36.7614 29 39 26.7614 39 24V10C39 7.23858 36.7614 5 34 5H28L26.5029 1.25722C26.1992 0.497902 25.4637 0 24.6459 0H14.3541C13.5363 0 12.8008 0.497903 12.4971 1.25722L11 5H5ZM30.5 9C29.6716 9 29 9.67157 29 10.5C29 11.3284 29.6716 12 30.5 12H33.5C34.3284 12 35 11.3284 35 10.5C35 9.67157 34.3284 9 33.5 9H30.5ZM27 17C27 20.866 23.866 24 20 24C16.134 24 13 20.866 13 17C13 13.134 16.134 10 20 10C23.866 10 27 13.134 27 17ZM20 21C22.2091 21 24 19.2091 24 17C24 14.7909 22.2091 13 20 13C17.7908 13 16 14.7909 16 17C16 19.2091 17.7908 21 20 21Z"
              fill="#FF0072"
            ></path>
          </svg>